HIERARCHY
ROOT Hips
{
	OFFSET 0.000000 97.167313 0.000000
	CHANNELS 6 Xposition Yposition Zposition Xrotation Yrotation Zrotation
	JOINT Spine
	{
		OFFSET 0.000000 13.784798 0.064400
		CHANNELS 3 Xrotation Yrotation Zrotation
		JOINT Spine1
		{
			OFFSET 0.000000 12.037903 0.404700
			CHANNELS 3 Xrotation Yrotation Zrotation
			JOINT Spine2
			{
				OFFSET 0.000000 17.795601 0.420200
				CHANNELS 3 Xrotation Yrotation Zrotation
				JOINT Neck
				{
					OFFSET 0.000000 39.131302 11.954600
					CHANNELS 3 Xrotation Yrotation Zrotation
					JOINT Head
					{
						OFFSET 0.000000 14.456192 15.627699
						CHANNELS 3 Xrotation Yrotation Zrotation
						JOINT HeadTop_End
						{
							OFFSET 0.000000 15.703506 7.603401
							CHANNELS 3 Xrotation Yrotation Zrotation
							End Site
							{
								OFFSET 0.000000 17.447403 0.000000
							}
						}
					}
				}
				JOINT LeftShoulder
				{
					OFFSET 17.399500 24.608795 1.168800
					CHANNELS 3 Xrotation Yrotation Zrotation
					JOINT LeftArm
					{
						OFFSET 18.980635 5.765305 1.818600
						CHANNELS 3 Xrotation Yrotation Zrotation
						JOINT LeftForeArm
						{
							OFFSET 49.290169 0.000000 0.000000
							CHANNELS 3 Xrotation Yrotation Zrotation
							JOINT LeftHand
							{
								OFFSET 31.562012 0.000000 0.000000
								CHANNELS 3 Xrotation Yrotation Zrotation
								JOINT LeftHandThumb1
								{
									OFFSET 6.133995 -4.388519 7.076070
									CHANNELS 3 Xrotation Yrotation Zrotation
									JOINT LeftHandThumb2
									{
										OFFSET 6.037666 -3.485840 3.485847
										CHANNELS 3 Xrotation Yrotation Zrotation
										JOINT LeftHandThumb3
										{
											OFFSET 6.496506 -3.750763 3.750761
											CHANNELS 3 Xrotation Yrotation Zrotation
											JOINT LeftHandThumb4
											{
												OFFSET 5.616882 -3.242905 3.242910
												CHANNELS 3 Xrotation Yrotation Zrotation
												End Site
												{
													OFFSET -1.254608 7.132141 0.375429
												}
											}
										}
									}
								}
								JOINT LeftHandPinky1
								{
									OFFSET 18.920792 -0.453171 -11.426712
									CHANNELS 3 Xrotation Yrotation Zrotation
									JOINT LeftHandPinky2
									{
										OFFSET 4.919586 0.000000 0.000000
										CHANNELS 3 Xrotation Yrotation Zrotation
										JOINT LeftHandPinky3
										{
											OFFSET 5.233047 0.000000 0.000000
											CHANNELS 3 Xrotation Yrotation Zrotation
											JOINT LeftHandPinky4
											{
												OFFSET 5.571716 0.000000 0.000000
												CHANNELS 3 Xrotation Yrotation Zrotation
												End Site
												{
													OFFSET -3.459808 4.342407 -0.466164
												}
											}
										}
									}
								}
								JOINT LeftHandRing1
								{
									OFFSET 22.726120 -0.094986 -6.500475
									CHANNELS 3 Xrotation Yrotation Zrotation
									JOINT LeftHandRing2
									{
										OFFSET 6.408615 0.000000 0.000000
										CHANNELS 3 Xrotation Yrotation Zrotation
										JOINT LeftHandRing3
										{
											OFFSET 6.150223 0.000000 0.000000
											CHANNELS 3 Xrotation Yrotation Zrotation
											JOINT LeftHandRing4
											{
												OFFSET 6.145386 0.000000 0.000000
												CHANNELS 3 Xrotation Yrotation Zrotation
												End Site
												{
													OFFSET -3.671402 4.923981 -0.202372
												}
											}
										}
									}
								}
								JOINT LeftHandMiddle1
								{
									OFFSET 23.373947 0.000000 0.000001
									CHANNELS 3 Xrotation Yrotation Zrotation
									JOINT LeftHandMiddle2
									{
										OFFSET 6.996567 0.000000 0.000000
										CHANNELS 3 Xrotation Yrotation Zrotation
										JOINT LeftHandMiddle3
										{
											OFFSET 7.015945 0.000000 0.000000
											CHANNELS 3 Xrotation Yrotation Zrotation
											JOINT LeftHandMiddle4
											{
												OFFSET 7.721573 0.000000 0.000000
												CHANNELS 3 Xrotation Yrotation Zrotation
												End Site
												{
													OFFSET -4.651108 6.158463 0.251582
												}
											}
										}
									}
								}
								JOINT LeftHandIndex1
								{
									OFFSET 21.310577 -0.490082 6.209344
									CHANNELS 3 Xrotation Yrotation Zrotation
									JOINT LeftHandIndex2
									{
										OFFSET 7.536453 0.000000 0.000000
										CHANNELS 3 Xrotation Yrotation Zrotation
										JOINT LeftHandIndex3
										{
											OFFSET 7.512344 0.000000 0.000000
											CHANNELS 3 Xrotation Yrotation Zrotation
											JOINT LeftHandIndex4
											{
												OFFSET 10.212402 0.000000 0.000001
												CHANNELS 3 Xrotation Yrotation Zrotation
												End Site
												{
													OFFSET -5.180801 8.690506 1.388433
												}
											}
										}
									}
								}
							}
						}
					}
				}
				JOINT RightShoulder
				{
					OFFSET -17.399500 24.608795 1.168800
					CHANNELS 3 Xrotation Yrotation Zrotation
					JOINT RightArm
					{
						OFFSET -18.980635 5.765305 1.818600
						CHANNELS 3 Xrotation Yrotation Zrotation
						JOINT RightForeArm
						{
							OFFSET -49.290169 0.000000 0.000000
							CHANNELS 3 Xrotation Yrotation Zrotation
							JOINT RightHand
							{
								OFFSET -31.562012 0.000000 0.000000
								CHANNELS 3 Xrotation Yrotation Zrotation
								JOINT RightHandThumb1
								{
									OFFSET -6.133995 -4.388519 7.076070
									CHANNELS 3 Xrotation Yrotation Zrotation
									JOINT RightHandThumb2
									{
										OFFSET -6.037666 -3.485840 3.485847
										CHANNELS 3 Xrotation Yrotation Zrotation
										JOINT RightHandThumb3
										{
											OFFSET -6.496506 -3.750763 3.750761
											CHANNELS 3 Xrotation Yrotation Zrotation
											JOINT RightHandThumb4
											{
												OFFSET -5.616882 -3.242905 3.242910
												CHANNELS 3 Xrotation Yrotation Zrotation
												End Site
												{
													OFFSET 1.254608 7.132141 0.375429
												}
											}
										}
									}
								}
								JOINT RightHandIndex1
								{
									OFFSET -21.310577 -0.490082 6.209344
									CHANNELS 3 Xrotation Yrotation Zrotation
									JOINT RightHandIndex2
									{
										OFFSET -7.536453 0.000000 0.000000
										CHANNELS 3 Xrotation Yrotation Zrotation
										JOINT RightHandIndex3
										{
											OFFSET -7.512344 0.000000 0.000000
											CHANNELS 3 Xrotation Yrotation Zrotation
											JOINT RightHandIndex4
											{
												OFFSET -10.212402 0.000000 0.000001
												CHANNELS 3 Xrotation Yrotation Zrotation
												End Site
												{
													OFFSET 5.180801 8.690506 1.388433
												}
											}
										}
									}
								}
								JOINT RightHandMiddle1
								{
									OFFSET -23.373947 0.000000 0.000001
									CHANNELS 3 Xrotation Yrotation Zrotation
									JOINT RightHandMiddle2
									{
										OFFSET -6.996567 0.000000 0.000000
										CHANNELS 3 Xrotation Yrotation Zrotation
										JOINT RightHandMiddle3
										{
											OFFSET -7.015945 0.000000 0.000000
											CHANNELS 3 Xrotation Yrotation Zrotation
											JOINT RightHandMiddle4
											{
												OFFSET -7.721573 0.000000 0.000000
												CHANNELS 3 Xrotation Yrotation Zrotation
												End Site
												{
													OFFSET 4.651108 6.158463 0.251582
												}
											}
										}
									}
								}
								JOINT RightHandRing1
								{
									OFFSET -22.726120 -0.094986 -6.500475
									CHANNELS 3 Xrotation Yrotation Zrotation
									JOINT RightHandRing2
									{
										OFFSET -6.408615 0.000000 0.000000
										CHANNELS 3 Xrotation Yrotation Zrotation
										JOINT RightHandRing3
										{
											OFFSET -6.150223 0.000000 0.000000
											CHANNELS 3 Xrotation Yrotation Zrotation
											JOINT RightHandRing4
											{
												OFFSET -6.145386 0.000000 0.000000
												CHANNELS 3 Xrotation Yrotation Zrotation
												End Site
												{
													OFFSET 3.671402 4.923981 -0.202372
												}
											}
										}
									}
								}
								JOINT RightHandPinky1
								{
									OFFSET -18.920792 -0.453171 -11.426712
									CHANNELS 3 Xrotation Yrotation Zrotation
									JOINT RightHandPinky2
									{
										OFFSET -4.919586 0.000000 0.000000
										CHANNELS 3 Xrotation Yrotation Zrotation
										JOINT RightHandPinky3
										{
											OFFSET -5.233047 0.000000 0.000000
											CHANNELS 3 Xrotation Yrotation Zrotation
											JOINT RightHandPinky4
											{
												OFFSET -5.571716 0.000000 0.000000
												CHANNELS 3 Xrotation Yrotation Zrotation
												End Site
												{
													OFFSET 3.459808 4.342407 -0.466164
												}
											}
										}
									}
								}
							}
						}
					}
				}
			}
		}
	}
	JOINT LeftUpLeg
	{
		OFFSET 19.899099 -7.885101 -3.429500
		CHANNELS 3 Xrotation Yrotation Zrotation
		JOINT LeftLeg
		{
			OFFSET 1.745560 -36.997807 10.304700
			CHANNELS 3 Xrotation Yrotation Zrotation
			JOINT LeftFoot
			{
				OFFSET -1.745558 -29.803308 -13.615400
				CHANNELS 3 Xrotation Yrotation Zrotation
				JOINT LeftToeBase
				{
					OFFSET 1.181900 -18.539904 15.226099
					CHANNELS 3 Xrotation Yrotation Zrotation
					JOINT LeftToe_End
					{
						OFFSET -0.863701 1.402801 16.534700
						CHANNELS 3 Xrotation Yrotation Zrotation
						End Site
						{
							OFFSET 0.000000 16.616566 0.000000
						}
					}
				}
			}
		}
	}
	JOINT RightUpLeg
	{
		OFFSET -19.899099 -7.885101 -3.429500
		CHANNELS 3 Xrotation Yrotation Zrotation
		JOINT RightLeg
		{
			OFFSET -1.745560 -36.997807 10.304700
			CHANNELS 3 Xrotation Yrotation Zrotation
			JOINT RightFoot
			{
				OFFSET 1.745558 -29.803308 -13.615400
				CHANNELS 3 Xrotation Yrotation Zrotation
				JOINT RightToeBase
				{
					OFFSET -1.181900 -18.539904 15.226099
					CHANNELS 3 Xrotation Yrotation Zrotation
					JOINT RightToe_End
					{
						OFFSET 0.863701 1.402801 16.534700
						CHANNELS 3 Xrotation Yrotation Zrotation
						End Site
						{
							OFFSET 0.000000 16.616566 0.000000
						}
					}
				}
			}
		}
	}
}
MOTION
Frames: 4
Frame Time: 0.033333
0.594704 50.611031 20.876957 -0.596678 0.038689 1.013849 8.945705 -0.415149 -1.375590 -3.065810 -1.140215 -0.594714 -3.065296 -1.090736 -0.558743 -4.501856 0.616461 -1.851034 -7.412143 4.887531 -20.541200 -0.000001 -0.000000 -0.000001 1.426913 -16.870152 0.071681 -57.641011 -42.332126 -37.143443 0.000475 -95.142288 0.000510 -50.094113 23.072133 47.478592 4.227236 -21.814735 21.587323 -0.001089 13.168244 -17.768655 2.228571 33.666037 -7.211256 0.000000 -0.000000 -0.000001 -1.012923 11.233679 -28.523661 1.542211 3.962137 -42.522941 0.399435 2.127977 -21.259430 0.000000 0.000003 -0.000003 1.759505 8.448987 -17.974309 3.262555 5.249110 -63.703269 0.230945 1.630251 -16.124941 -0.000000 0.000001 0.000003 1.057221 6.478400 -16.879375 1.261576 3.633143 -38.287500 0.625483 2.635784 -26.694369 -0.000000 -0.000000 0.000006 0.609821 1.556872 -2.907637 1.390412 3.790330 -40.277622 1.046798 3.343687 -34.759034 -0.000001 -0.000001 -0.000006 -0.379944 27.952411 -8.498833 -53.198335 29.363414 36.188620 0.000387 88.211832 -0.000406 -10.800459 16.745232 -33.714165 -19.549437 2.962319 -44.048474 1.880152 -22.162835 47.763964 15.821740 -37.774003 20.941490 0.000001 -0.000000 -0.000004 5.341439 -0.901724 66.832889 0.000368 -0.058647 0.719885 0.053571 -0.705130 8.689554 -0.000000 0.000000 -0.000001 2.614948 -6.610611 49.584141 0.335684 -1.737732 21.865107 0.068017 -0.793895 9.793780 0.000000 0.000000 -0.000009 2.866463 -7.115145 43.185879 0.034650 -0.567654 6.985872 0.019623 -0.427544 5.255815 -0.000001 0.000000 -0.000002 -10.992653 -5.600946 18.208690 0.975006 -2.853437 37.723681 0.052771 -0.699814 8.623598 0.000001 0.000000 0.000000 -85.552340 -11.823094 20.374564 80.440408 -2.913953 -4.209856 8.550773 -5.840998 -9.569239 -0.103285 0.000008 0.000002 0.000000 -0.000001 -0.000000 -87.466385 13.836365 -16.456917 81.375550 3.337632 2.361381 9.820191 -0.941781 11.099446 -0.073986 -0.000008 -0.000008 -0.000000 0.000000 -0.000000 
0.576710 50.620613 20.854221 -0.641057 0.034084 1.058001 8.866629 -0.409190 -1.394022 -3.187140 -1.107290 -0.597347 -3.187599 -1.057126 -0.558349 -4.083128 0.620321 -1.672843 -7.633500 5.302375 -20.935216 -0.000001 0.000000 -0.000000 1.428207 -16.498127 0.275369 -53.658120 -40.403991 -32.057370 0.000335 -95.322182 0.000301 -48.740544 22.500796 40.456908 3.646238 -24.455877 24.555898 -3.156212 11.549519 -14.594436 5.418171 42.152540 -4.528107 0.000000 -0.000000 -0.000001 -0.893908 11.482578 -30.434657 1.453838 3.863753 -41.227729 0.381421 2.081154 -20.769292 -0.000003 0.000002 -0.000002 1.792572 8.436400 -18.429858 2.957337 5.087548 -60.315884 0.267655 1.752182 -17.368539 0.000001 0.000001 0.000005 1.129252 6.549263 -17.958727 1.219986 3.579919 -37.626208 0.594515 2.573380 -26.013189 0.000001 -0.000002 0.000004 0.711761 1.954947 -7.056633 1.366100 3.761490 -39.908273 0.928411 3.166542 -32.674064 -0.000001 0.000005 0.000002 -0.313150 26.422857 -9.023908 -53.031911 28.716376 36.147670 -0.000410 88.606330 0.000361 -9.250085 13.066723 -32.476242 -18.548130 1.645216 -41.567975 3.409160 -23.177110 48.308572 16.263761 -37.964855 21.261341 -0.000001 0.000001 -0.000000 5.550184 -1.128207 62.200689 -0.000000 -0.000010 -0.000006 0.035527 -0.574777 7.074014 0.000000 -0.000003 -0.000001 2.470278 -6.540788 47.562200 0.146759 -1.161118 14.406730 0.090569 -0.914980 11.306086 0.000001 0.000000 -0.000004 2.862189 -7.109617 43.203822 0.015296 -0.377524 4.639446 0.043371 -0.634804 7.817157 -0.000001 0.000001 -0.000003 -7.105117 -16.139949 19.069731 0.715938 -2.483062 32.163050 0.049916 -0.680754 8.386946 -0.000000 0.000000 0.000004 -85.476594 -11.768274 20.391759 80.388854 -2.906620 -4.214396 8.572045 -5.853386 -9.564137 -0.113765 -0.000004 -0.000003 0.000000 -0.000001 0.000000 -87.461235 13.863709 -16.425915 81.365749 3.317070 2.342068 9.869233 -0.933963 11.091305 -0.081280 -0.000001 -0.000024 -0.000000 -0.000000 0.000000 
0.552506 50.628120 20.850960 -0.674962 0.029005 1.119239 8.785633 -0.404424 -1.407185 -3.317852 -1.084890 -0.589012 -3.318983 -1.034399 -0.548003 -3.590289 0.632397 -1.523975 -7.724079 5.726270 -21.338716 -0.000000 -0.000000 0.000000 1.431317 -16.275687 0.445487 -51.829132 -38.066523 -29.041387 0.000025 -95.644013 0.000048 -46.831441 23.403474 31.555795 3.812373 -23.515281 26.210260 -3.006958 12.366028 -13.139881 5.806671 44.467673 -3.022098 -0.000000 0.000001 -0.000001 -0.836555 11.604047 -31.471965 1.425939 3.831786 -40.812235 0.399688 2.128659 -21.266709 -0.000003 -0.000001 -0.000004 1.856244 8.450249 -19.151886 2.801959 4.996163 -58.548443 0.322529 1.918745 -19.081373 -0.000003 0.000000 0.000005 1.207351 6.626908 -19.087679 1.227252 3.589336 -37.742744 0.610679 2.606183 -26.370664 0.000004 -0.000002 0.000001 0.792126 2.247016 -9.807738 1.389937 3.789771 -40.270440 0.893878 3.112128 -32.043470 -0.000001 0.000003 0.000001 -0.274588 25.061501 -9.516993 -53.264773 27.896352 36.390558 0.001902 89.057013 -0.002168 -7.392258 9.888355 -30.528886 -17.554418 0.462139 -39.196823 5.159758 -24.288638 49.047264 16.948227 -38.275274 21.723867 0.000003 -0.000001 0.000002 5.702688 -1.242121 60.062204 -0.000002 -0.000002 0.000023 0.035330 -0.573170 7.054112 -0.000001 -0.000003 -0.000002 2.355194 -6.478560 46.010173 0.079131 -0.855762 10.565651 0.120830 -1.055086 13.066205 -0.000001 0.000003 -0.000004 2.944786 -7.127193 44.413025 0.015272 -0.377268 4.636272 0.097729 -0.950052 11.745704 -0.000000 -0.000002 -0.000007 -2.672262 -24.735402 22.981170 0.588220 -2.267480 29.082095 0.060878 -0.751378 9.264370 -0.000000 -0.000003 0.000000 -85.393579 -11.706632 20.407067 80.356021 -2.900087 -4.219710 8.559339 -5.861130 -9.562644 -0.113763 0.000004 0.000002 -0.000000 -0.000000 0.000000 -87.472655 13.910812 -16.396994 81.386205 3.302078 2.320923 9.896338 -0.920667 11.085199 -0.091612 -0.000001 -0.000021 0.000000 -0.000001 0.000000 
0.530084 50.621956 20.855722 -0.695654 0.032831 1.183853 8.712097 -0.394755 -1.391268 -3.436250 -1.073711 -0.532295 -3.437968 -1.023093 -0.489794 -3.104746 0.668639 -1.497621 -7.751595 6.114524 -21.738972 -0.000000 0.000000 -0.000002 1.439710 -16.220603 0.579387 -52.161803 -35.735755 -28.217533 0.000412 -95.936612 0.000375 -43.720782 24.434717 23.822516 3.725712 -21.209185 27.658229 -2.629233 13.840050 -11.980843 6.519837 44.023390 -2.870521 -0.000001 0.000001 0.000000 -0.836682 11.613990 -31.678404 1.399831 3.801381 -40.419762 0.426556 2.196342 -21.977993 -0.000000 0.000001 -0.000004 1.907410 8.461211 -19.733499 2.657320 4.905068 -56.872103 0.386762 2.095140 -20.915742 0.000002 -0.000001 0.000005 1.274904 6.692019 -20.050213 1.230243 3.593141 -37.790006 0.634822 2.654281 -26.897092 -0.000001 0.000001 0.000006 0.876349 2.528205 -12.178747 1.411085 3.814538 -40.589280 0.871694 3.076471 -31.632723 -0.000005 0.000003 0.000000 -0.261219 24.077429 -9.938481 -54.333871 26.461290 37.228673 -0.011186 89.979478 -0.002186 -4.832417 7.660653 -28.871654 -17.086919 -0.092580 -38.065273 7.452424 -25.668285 50.130269 17.853795 -38.738852 22.259001 0.000002 -0.000001 0.000002 5.716207 -1.249483 59.964355 -0.000003 -0.000009 0.000037 0.040787 -0.615680 7.580217 -0.000001 -0.000003 0.000003 2.304601 -6.449311 45.340650 0.048524 -0.671227 8.268839 0.155446 -1.194430 14.829466 0.000001 -0.000001 -0.000001 2.965779 -7.127206 44.797889 0.025571 -0.487843 5.999697 0.157125 -1.200733 14.909617 -0.000000 -0.000003 -0.000002 1.035137 -28.040223 28.762244 0.482413 -2.065956 26.284153 0.083087 -0.876729 10.827480 -0.000001 0.000003 0.000003 -85.344853 -11.655195 20.397781 80.340769 -2.904076 -4.225640 8.548043 -5.848829 -9.560871 -0.101027 -0.000003 -0.000002 -0.000000 -0.000001 0.000000 -87.505337 13.974311 -16.378976 81.438299 3.290219 2.300458 9.896769 -0.904880 11.087628 -0.094368 0.000001 0.000006 -0.000000 -0.000000 0.000000 
